<svg id="Layer_1" data-name="Layer 1" xmlns="http://www.w3.org/2000/svg" viewBox="0 0 668.18 218.23"><defs><style>.cls-1{fill:#d31c23;}</style></defs><path class="cls-1" d="M89.92,35.13h31.72L133.14,145l8.33-71.78V35.13h22.8L140.88,189.8H113.51l-9.32-69.6-10.7,69.6H66.12L42.92,35.13H75L87.74,145l9.71-63.25Zm103.3,139.6c5,0,6.35-4.17,6.35-26l21.81-5.55h2.18c-1,18.44-3.57,31.53-12.29,40.25-4.56,4.56-10.11,7.73-19.83,7.73-9.52,0-14.87-3.17-19.63-7.73-8.92-8.72-12.29-21.41-12.29-53.14,0-31.92,3.37-44.61,12.29-53.34,4.76-4.56,10.11-7.73,19.63-7.73,9.72,0,15.27,3.17,19.83,7.73,8.72,8.73,12.49,21.42,12.49,53.34v2.58l-37.08,7.53v6.75C186.68,169,187.87,174.73,193.22,174.73Zm3.18-51.95v-9.52c0-21.81-1-27.37-5-27.37-3.77,0-4.76,5.56-4.76,27.37v11.5Zm32.12,41.83-.4-10.31L250.93,147h.79l1.19,19c.4,6.94,2.18,10.12,5.35,10.12,3.57,0,5.36-3.18,5.36-11.7,0-10.91-2-15.47-12.5-23.2-16.65-12.3-22.8-20-22.8-37.08,0-22.21,8.73-34.9,31.33-34.9,18.24,0,25.18,9.32,25.78,26.17l.2,6.55-21,6.34h-.8l-1-13.88c-.59-8.33-1.78-10.11-4.56-10.11-2.57,0-3.77,3.37-3.77,11.3,0,8.92,1.59,12.69,13.49,20.82,16.06,11.1,22,20,22,42.63,0,21.22-11.3,32.12-32.92,32.12C237.05,191.18,229.11,181.87,228.52,164.61Zm95.57-80.9v64.05c0,17.85,3,26.17,11.7,39.66v1.78l-26.37,1.39c-9.52-12.69-12.69-21.61-12.69-41.84v-65h-6.34L289.2,71h7.53V41.87l27.36-2.38V71H340l19.83-.79,9.71,85.26L377,106.32l-5.75-35.69h27.16l9.12,84.86,6.35-55.32V70.63h18.44l-18,119.17h-25l-6.74-50.17-7.73,50.17h-25L334.21,83.71ZM432,130.31c0-31.92,3.77-44.61,12.3-53.34,4.56-4.56,10.11-7.73,20-7.73,9.72,0,15.27,3.17,19.83,7.73,8.73,8.73,12.1,21.42,12.1,53.34,0,31.73-3.37,44.42-12.1,53.14-4.56,4.56-10.11,7.73-19.83,7.73-9.91,0-15.46-3.17-20-7.73C435.73,174.73,432,162,432,130.31Zm36.88,16.06V114.05c0-22.21-.59-27.76-4.56-27.76-4.16,0-4.75,5.55-4.75,27.76v32.32c0,22.21.59,27.76,4.75,27.76C468.25,174.13,468.84,168.58,468.84,146.37Zm33.32,43.43V91.25l-2-19.83,29.35-1.19V86.89c5-10.91,11.1-17.06,21.81-17.06v31.33h-2a25.66,25.66,0,0,0-19.83-3.37v92ZM589.21,35.13,618.55,32V170l2,19.83H591.19V179.68c-3.77,6.75-9.32,11.5-16.26,11.5-12.49,0-20.43-9.71-20.43-42.43V123.57c0-29.15,3.18-39.46,10.91-47.39,4.36-4.56,10.71-6,16.66-6a32.24,32.24,0,0,1,9.12,1.59V54.76Zm-4,133.25c1.59,1.59,3.77,1.39,6,.6V88.47A6,6,0,0,0,586,90.26c-3.17,3-4.36,8.52-4.36,32.91v14.28C581.67,162.83,582.86,166,585.24,168.38Z"/><path class="cls-1" d="M632.24,33.17a6.49,6.49,0,0,1,3.13.81,5.88,5.88,0,0,1,2.35,2.34,6.35,6.35,0,0,1,0,6.33A5.86,5.86,0,0,1,635.39,45a6.33,6.33,0,0,1-6.3,0,6,6,0,0,1-2.34-2.34,6.35,6.35,0,0,1,0-6.33A5.88,5.88,0,0,1,629.11,34,6.49,6.49,0,0,1,632.24,33.17Zm0,1.24a5.14,5.14,0,0,0-2.51.65,4.75,4.75,0,0,0-1.89,1.88,5.09,5.09,0,0,0,0,5.1,4.79,4.79,0,0,0,1.88,1.88,5,5,0,0,0,5.06,0A4.85,4.85,0,0,0,636.66,42a5,5,0,0,0,.68-2.54,5.13,5.13,0,0,0-.69-2.56,4.75,4.75,0,0,0-1.89-1.88A5.14,5.14,0,0,0,632.25,34.41Zm-2.87,8.48V36.17h3.51a2.67,2.67,0,0,1,1.06.27,1.71,1.71,0,0,1,.63.65,2,2,0,0,1,.25,1,1.78,1.78,0,0,1-.48,1.25A2.2,2.2,0,0,1,633,40a1.57,1.57,0,0,1,.47.25,3.25,3.25,0,0,1,.45.51c0,.07.22.34.5.82l.79,1.36h-1.68L633,41.8a4.62,4.62,0,0,0-1-1.39,1.5,1.5,0,0,0-.94-.28h-.36v2.76Zm1.36-3.82h.56a6.82,6.82,0,0,0,1.47-.09.87.87,0,0,0,.45-.32.85.85,0,0,0,.16-.52.83.83,0,0,0-.16-.5.9.9,0,0,0-.46-.31,6.58,6.58,0,0,0-1.46-.1h-.56Z"/></svg>